<mxfile host="65bd71144e">
    <diagram id="sJtmI8JIlfnIfkQskRgo" name="PÃ¡gina-1">
        <mxGraphModel dx="2031" dy="747" grid="1" gridSize="10" guides="1" tooltips="1" connect="1" arrows="1" fold="1" page="1" pageScale="1" pageWidth="827" pageHeight="1169" math="0" shadow="0">
            <root>
                <mxCell id="0"/>
                <mxCell id="1" parent="0"/>
                <mxCell id="5" value="" style="edgeStyle=none;html=1;" edge="1" parent="1" source="2" target="4">
                    <mxGeometry relative="1" as="geometry"/>
                </mxCell>
                <mxCell id="2" value="INICIO" style="ellipse;whiteSpace=wrap;html=1;fillColor=#60a917;fontColor=#ffffff;strokeColor=#2D7600;" vertex="1" parent="1">
                    <mxGeometry x="310" y="20" width="120" height="80" as="geometry"/>
                </mxCell>
                <mxCell id="7" value="" style="edgeStyle=none;html=1;" edge="1" parent="1" source="4" target="6">
                    <mxGeometry relative="1" as="geometry"/>
                </mxCell>
                <mxCell id="4" value="d = random(1,6)" style="rounded=0;whiteSpace=wrap;html=1;fillColor=#d80073;fontColor=#ffffff;strokeColor=#A50040;" vertex="1" parent="1">
                    <mxGeometry x="310" y="150" width="120" height="60" as="geometry"/>
                </mxCell>
                <mxCell id="6" value="d == 1" style="rhombus;whiteSpace=wrap;html=1;fillColor=#1ba1e2;fontColor=#ffffff;strokeColor=#006EAF;" vertex="1" parent="1">
                    <mxGeometry x="320" y="250" width="100" height="90" as="geometry"/>
                </mxCell>
                <mxCell id="8" value="rta = &quot;UNO&quot;" style="rounded=0;whiteSpace=wrap;html=1;fillColor=#6d8764;fontColor=#ffffff;strokeColor=#3A5431;" vertex="1" parent="1">
                    <mxGeometry x="480" y="340" width="120" height="60" as="geometry"/>
                </mxCell>
                <mxCell id="11" value="d ==2" style="rhombus;whiteSpace=wrap;html=1;fillColor=#1ba1e2;fontColor=#ffffff;strokeColor=#006EAF;" vertex="1" parent="1">
                    <mxGeometry x="160" y="340" width="80" height="80" as="geometry"/>
                </mxCell>
                <mxCell id="12" value="rta = &quot;DOS" style="rounded=0;whiteSpace=wrap;html=1;fillColor=#6a00ff;fontColor=#ffffff;strokeColor=#3700CC;" vertex="1" parent="1">
                    <mxGeometry x="294" y="410" width="120" height="60" as="geometry"/>
                </mxCell>
                <mxCell id="13" value="" style="endArrow=classic;html=1;entryX=0.5;entryY=0;entryDx=0;entryDy=0;exitX=1;exitY=0.5;exitDx=0;exitDy=0;" edge="1" parent="1" source="6" target="8">
                    <mxGeometry width="50" height="50" relative="1" as="geometry">
                        <mxPoint x="320" y="270" as="sourcePoint"/>
                        <mxPoint x="370" y="220" as="targetPoint"/>
                        <Array as="points">
                            <mxPoint x="540" y="295"/>
                        </Array>
                    </mxGeometry>
                </mxCell>
                <mxCell id="14" value="" style="endArrow=classic;html=1;entryX=0.5;entryY=0;entryDx=0;entryDy=0;exitX=0;exitY=0.5;exitDx=0;exitDy=0;" edge="1" parent="1" source="6" target="11">
                    <mxGeometry width="50" height="50" relative="1" as="geometry">
                        <mxPoint x="320" y="270" as="sourcePoint"/>
                        <mxPoint x="370" y="220" as="targetPoint"/>
                        <Array as="points">
                            <mxPoint x="200" y="295"/>
                        </Array>
                    </mxGeometry>
                </mxCell>
                <mxCell id="15" value="" style="endArrow=classic;html=1;entryX=0.5;entryY=0;entryDx=0;entryDy=0;exitX=1;exitY=0.5;exitDx=0;exitDy=0;" edge="1" parent="1" source="11" target="12">
                    <mxGeometry width="50" height="50" relative="1" as="geometry">
                        <mxPoint x="320" y="380" as="sourcePoint"/>
                        <mxPoint x="370" y="330" as="targetPoint"/>
                        <Array as="points">
                            <mxPoint x="354" y="380"/>
                        </Array>
                    </mxGeometry>
                </mxCell>
                <mxCell id="16" value="d ==3" style="rhombus;whiteSpace=wrap;html=1;fillColor=#1ba1e2;fontColor=#ffffff;strokeColor=#006EAF;" vertex="1" parent="1">
                    <mxGeometry x="20" y="420" width="80" height="80" as="geometry"/>
                </mxCell>
                <mxCell id="17" value="" style="endArrow=classic;html=1;exitX=0;exitY=0.5;exitDx=0;exitDy=0;" edge="1" parent="1" source="11">
                    <mxGeometry width="50" height="50" relative="1" as="geometry">
                        <mxPoint x="320" y="430" as="sourcePoint"/>
                        <mxPoint x="60" y="420" as="targetPoint"/>
                        <Array as="points">
                            <mxPoint x="60" y="380"/>
                        </Array>
                    </mxGeometry>
                </mxCell>
                <mxCell id="18" value="rta = &quot;TRES&quot;" style="rounded=0;whiteSpace=wrap;html=1;fillColor=#60a917;fontColor=#ffffff;strokeColor=#2D7600;" vertex="1" parent="1">
                    <mxGeometry x="150" y="530" width="120" height="60" as="geometry"/>
                </mxCell>
                <mxCell id="19" value="" style="endArrow=classic;html=1;entryX=0.5;entryY=0;entryDx=0;entryDy=0;exitX=1;exitY=0.5;exitDx=0;exitDy=0;" edge="1" parent="1" source="16" target="18">
                    <mxGeometry width="50" height="50" relative="1" as="geometry">
                        <mxPoint x="320" y="430" as="sourcePoint"/>
                        <mxPoint x="370" y="380" as="targetPoint"/>
                        <Array as="points">
                            <mxPoint x="210" y="460"/>
                        </Array>
                    </mxGeometry>
                </mxCell>
                <mxCell id="20" value="d==4" style="rhombus;whiteSpace=wrap;html=1;fillColor=#1ba1e2;fontColor=#ffffff;strokeColor=#006EAF;" vertex="1" parent="1">
                    <mxGeometry x="-130" y="505" width="80" height="80" as="geometry"/>
                </mxCell>
                <mxCell id="21" value="" style="endArrow=classic;html=1;entryX=0.5;entryY=0;entryDx=0;entryDy=0;exitX=0;exitY=0.5;exitDx=0;exitDy=0;" edge="1" parent="1" source="16" target="20">
                    <mxGeometry width="50" height="50" relative="1" as="geometry">
                        <mxPoint x="100" y="430" as="sourcePoint"/>
                        <mxPoint x="150" y="380" as="targetPoint"/>
                        <Array as="points">
                            <mxPoint x="-90" y="460"/>
                        </Array>
                    </mxGeometry>
                </mxCell>
                <mxCell id="23" value="rta = &quot;CUATRO&quot;" style="rounded=0;whiteSpace=wrap;html=1;fillColor=#f0a30a;fontColor=#000000;strokeColor=#BD7000;" vertex="1" parent="1">
                    <mxGeometry x="-20" y="610" width="120" height="60" as="geometry"/>
                </mxCell>
                <mxCell id="24" value="" style="endArrow=classic;html=1;entryX=0.5;entryY=0;entryDx=0;entryDy=0;exitX=1;exitY=0.5;exitDx=0;exitDy=0;" edge="1" parent="1" source="20" target="23">
                    <mxGeometry width="50" height="50" relative="1" as="geometry">
                        <mxPoint x="100" y="600" as="sourcePoint"/>
                        <mxPoint x="80" y="550" as="targetPoint"/>
                        <Array as="points">
                            <mxPoint x="40" y="545"/>
                        </Array>
                    </mxGeometry>
                </mxCell>
                <mxCell id="25" value="d ==5" style="rhombus;whiteSpace=wrap;html=1;fillColor=#1ba1e2;fontColor=#ffffff;strokeColor=#006EAF;" vertex="1" parent="1">
                    <mxGeometry x="-280" y="585" width="80" height="80" as="geometry"/>
                </mxCell>
                <mxCell id="26" value="" style="endArrow=classic;html=1;entryX=0.5;entryY=0;entryDx=0;entryDy=0;exitX=0;exitY=0.5;exitDx=0;exitDy=0;" edge="1" parent="1" source="20" target="25">
                    <mxGeometry width="50" height="50" relative="1" as="geometry">
                        <mxPoint x="-80" y="600" as="sourcePoint"/>
                        <mxPoint x="-30" y="550" as="targetPoint"/>
                        <Array as="points">
                            <mxPoint x="-240" y="545"/>
                        </Array>
                    </mxGeometry>
                </mxCell>
                <mxCell id="27" value="rta = &quot;CINCO&quot;" style="rounded=0;whiteSpace=wrap;html=1;fillColor=#e51400;fontColor=#ffffff;strokeColor=#B20000;" vertex="1" parent="1">
                    <mxGeometry x="-180" y="700" width="120" height="60" as="geometry"/>
                </mxCell>
                <mxCell id="28" value="" style="endArrow=classic;html=1;exitX=1;exitY=0.5;exitDx=0;exitDy=0;" edge="1" parent="1" source="25" target="27">
                    <mxGeometry width="50" height="50" relative="1" as="geometry">
                        <mxPoint x="-80" y="600" as="sourcePoint"/>
                        <mxPoint x="-30" y="550" as="targetPoint"/>
                        <Array as="points">
                            <mxPoint x="-120" y="625"/>
                        </Array>
                    </mxGeometry>
                </mxCell>
                <mxCell id="29" value="d ==6" style="rhombus;whiteSpace=wrap;html=1;fillColor=#1ba1e2;fontColor=#ffffff;strokeColor=#006EAF;" vertex="1" parent="1">
                    <mxGeometry x="-413" y="680" width="80" height="80" as="geometry"/>
                </mxCell>
                <mxCell id="30" value="" style="endArrow=classic;html=1;entryX=0.5;entryY=0;entryDx=0;entryDy=0;exitX=0;exitY=0.5;exitDx=0;exitDy=0;" edge="1" parent="1" source="25" target="29">
                    <mxGeometry width="50" height="50" relative="1" as="geometry">
                        <mxPoint x="-80" y="600" as="sourcePoint"/>
                        <mxPoint x="-30" y="550" as="targetPoint"/>
                        <Array as="points">
                            <mxPoint x="-370" y="625"/>
                        </Array>
                    </mxGeometry>
                </mxCell>
                <mxCell id="31" value="rta = &quot;SEIS&quot;" style="rounded=0;whiteSpace=wrap;html=1;fillColor=#fa6800;fontColor=#000000;strokeColor=#C73500;" vertex="1" parent="1">
                    <mxGeometry x="-320" y="770" width="120" height="60" as="geometry"/>
                </mxCell>
                <mxCell id="32" value="" style="endArrow=classic;html=1;entryX=0.5;entryY=0;entryDx=0;entryDy=0;exitX=1;exitY=0.5;exitDx=0;exitDy=0;" edge="1" parent="1" source="29" target="31">
                    <mxGeometry width="50" height="50" relative="1" as="geometry">
                        <mxPoint x="-220" y="640" as="sourcePoint"/>
                        <mxPoint x="-170" y="590" as="targetPoint"/>
                        <Array as="points">
                            <mxPoint x="-260" y="720"/>
                        </Array>
                    </mxGeometry>
                </mxCell>
                <mxCell id="42" value="" style="edgeStyle=none;html=1;" edge="1" parent="1" source="33" target="34">
                    <mxGeometry relative="1" as="geometry"/>
                </mxCell>
                <mxCell id="33" value="EL DADO CAYO EN RTA" style="shape=document;whiteSpace=wrap;html=1;boundedLbl=1;fillColor=#e3c800;fontColor=#000000;strokeColor=#B09500;" vertex="1" parent="1">
                    <mxGeometry x="10" y="1060" width="120" height="80" as="geometry"/>
                </mxCell>
                <mxCell id="34" value="FIN" style="ellipse;whiteSpace=wrap;html=1;fillColor=#76608a;fontColor=#ffffff;strokeColor=#432D57;" vertex="1" parent="1">
                    <mxGeometry x="10" y="1190" width="120" height="80" as="geometry"/>
                </mxCell>
                <mxCell id="36" value="" style="endArrow=classic;html=1;exitX=0.5;exitY=1;exitDx=0;exitDy=0;" edge="1" parent="1" source="12">
                    <mxGeometry width="50" height="50" relative="1" as="geometry">
                        <mxPoint x="130" y="760" as="sourcePoint"/>
                        <mxPoint x="354" y="980" as="targetPoint"/>
                        <Array as="points">
                            <mxPoint x="354" y="780"/>
                        </Array>
                    </mxGeometry>
                </mxCell>
                <mxCell id="37" value="" style="endArrow=classic;html=1;exitX=0.5;exitY=1;exitDx=0;exitDy=0;" edge="1" parent="1" source="18">
                    <mxGeometry width="50" height="50" relative="1" as="geometry">
                        <mxPoint x="130" y="760" as="sourcePoint"/>
                        <mxPoint x="210" y="970" as="targetPoint"/>
                        <Array as="points">
                            <mxPoint x="210" y="830"/>
                        </Array>
                    </mxGeometry>
                </mxCell>
                <mxCell id="38" value="" style="endArrow=classic;html=1;exitX=0.5;exitY=1;exitDx=0;exitDy=0;" edge="1" parent="1" source="23">
                    <mxGeometry width="50" height="50" relative="1" as="geometry">
                        <mxPoint x="130" y="760" as="sourcePoint"/>
                        <mxPoint x="40" y="980" as="targetPoint"/>
                    </mxGeometry>
                </mxCell>
                <mxCell id="39" value="" style="endArrow=classic;html=1;exitX=0.5;exitY=1;exitDx=0;exitDy=0;" edge="1" parent="1" source="27">
                    <mxGeometry width="50" height="50" relative="1" as="geometry">
                        <mxPoint x="130" y="760" as="sourcePoint"/>
                        <mxPoint x="-120" y="980" as="targetPoint"/>
                    </mxGeometry>
                </mxCell>
                <mxCell id="40" value="" style="endArrow=none;html=1;exitX=0.5;exitY=1;exitDx=0;exitDy=0;entryX=0.5;entryY=1;entryDx=0;entryDy=0;" edge="1" parent="1" source="29" target="8">
                    <mxGeometry width="50" height="50" relative="1" as="geometry">
                        <mxPoint x="-320" y="1010" as="sourcePoint"/>
                        <mxPoint x="570" y="720" as="targetPoint"/>
                        <Array as="points">
                            <mxPoint x="-370" y="980"/>
                            <mxPoint x="540" y="980"/>
                        </Array>
                    </mxGeometry>
                </mxCell>
                <mxCell id="43" value="" style="endArrow=classic;html=1;" edge="1" parent="1" target="33">
                    <mxGeometry width="50" height="50" relative="1" as="geometry">
                        <mxPoint x="70" y="980" as="sourcePoint"/>
                        <mxPoint x="90" y="900" as="targetPoint"/>
                    </mxGeometry>
                </mxCell>
                <mxCell id="44" value="" style="endArrow=classic;html=1;exitX=0.5;exitY=1;exitDx=0;exitDy=0;" edge="1" parent="1" source="31">
                    <mxGeometry width="50" height="50" relative="1" as="geometry">
                        <mxPoint x="-180" y="860" as="sourcePoint"/>
                        <mxPoint x="-260" y="980" as="targetPoint"/>
                    </mxGeometry>
                </mxCell>
            </root>
        </mxGraphModel>
    </diagram>
</mxfile>